<?xml version="1.0" encoding="utf-8"?>
<!-- Generator: Adobe Illustrator 16.0.4, SVG Export Plug-In . SVG Version: 6.00 Build 0)  -->
<!DOCTYPE svg PUBLIC "-//W3C//DTD SVG 1.1//EN" "http://www.w3.org/Graphics/SVG/1.1/DTD/svg11.dtd">
<svg version="1.1" xmlns="http://www.w3.org/2000/svg" xmlns:xlink="http://www.w3.org/1999/xlink" x="0px" y="0px"
	 width="193.333px" height="218.667px" viewBox="0 0 193.333 218.667" enable-background="new 0 0 193.333 218.667"
	 xml:space="preserve">
<g id="Layer_2">
	<g>
		<path fill="#E2B761" stroke="#8E660E" stroke-miterlimit="10" d="M14.59,80.375l112.336,131.273l57.771-162.102
			C184.696,49.546,95.099-46.348,14.59,80.375z"/>
		<path fill="#E2B761" stroke="#8E660E" stroke-miterlimit="10" d="M184.696,49.546"/>
		<path fill="#E2B761" stroke="#8E660E" stroke-miterlimit="10" d="M14.59,80.375"/>
	</g>
</g>
<g id="crust">
	<path fill="#8E660E" stroke="#8E660E" stroke-miterlimit="10" d="M6.092,70.444l8.498,9.93c0,0,62.72-115.699,170.106-30.829
		l4.267-11.972C188.963,37.574,89.602-57.528,6.092,70.444z"/>
	<path fill="#8E660E" d="M-87.667,119.417"/>
</g>
<g id="tomatoes">
	<path fill="#EA431C" d="M63.815,47.74c-15.079,0-27.302,11.775-27.302,26.301s12.223,26.301,27.302,26.301
		c15.078,0,27.301-11.775,27.301-26.301S78.894,47.74,63.815,47.74z M58.61,96.093L43.525,80.35l18.697-3.791L58.61,96.093z
		 M49.474,58.253l18.697-3.791l-3.612,19.534L49.474,58.253z M80.706,89.294L65.621,73.551l18.697-3.791L80.706,89.294z"/>
	<path fill="#EA431C" d="M132.325,133.226c-9.668-9.335-24.796-9.353-33.789-0.038c-8.994,9.314-8.446,24.432,1.222,33.767
		s24.796,9.352,33.789,0.038C142.54,157.678,141.993,142.56,132.325,133.226z M99.052,161.006l0.074-19.434l14.335,9.145
		L99.052,161.006z M116.621,131.087l14.335,9.145l-14.41,10.29L116.621,131.087z M117.43,170.327l0.075-19.434l14.334,9.145
		L117.43,170.327z"/>
	<path fill="#EA431C" d="M116.586,88.964c-7.664-7.399-19.646-7.421-26.764-0.049c-7.119,7.373-6.676,19.347,0.987,26.746
		c7.664,7.399,19.646,7.421,26.763,0.05C124.691,108.337,124.249,96.363,116.586,88.964z M90.247,110.949l0.048-15.392l11.36,7.251
		L90.247,110.949z M104.146,87.262l11.36,7.251l-11.408,8.142L104.146,87.262z M104.808,118.341l0.048-15.392l11.359,7.251
		L104.808,118.341z"/>
	<path fill="#EA431C" d="M156.624,46.092c-11.605-11.207-29.757-11.234-40.543-0.062c-10.787,11.172-10.123,29.312,1.483,40.518
		c11.606,11.205,29.759,11.232,40.544,0.062C168.893,75.438,168.229,57.297,156.624,46.092z M116.713,79.41l0.08-23.318
		l17.206,10.979L116.713,79.41z M137.779,43.519l17.205,10.979l-17.285,12.339L137.779,43.519z M138.769,90.602l0.081-23.318
		l17.204,10.979L138.769,90.602z"/>
</g>
<g id="olives">
	<path d="M47.406,69.319c-4.875,0-8.826,3.747-8.826,8.37c0,4.622,3.952,8.37,8.826,8.37s8.826-3.748,8.826-8.37
		C56.232,73.066,52.281,69.319,47.406,69.319z M47.406,82.423c-2.615,0-4.735-2.12-4.735-4.734s2.12-4.735,4.735-4.735
		c2.615,0,4.734,2.12,4.734,4.735S50.021,82.423,47.406,82.423z"/>
	<path d="M93.113,98.677c-3.606,0-6.53,3.516-6.53,7.853c0,4.336,2.924,7.853,6.53,7.853s6.53-3.517,6.53-7.853
		C99.643,102.193,96.72,98.677,93.113,98.677z M93.113,110.972c-1.935,0-3.503-1.989-3.503-4.442s1.568-4.443,3.503-4.443
		s3.502,1.99,3.502,4.443S95.048,110.972,93.113,110.972z"/>
	<path d="M133.563,62.043c-4.236,0-7.671,3.256-7.671,7.274c0,4.017,3.435,7.274,7.671,7.274c4.237,0,7.671-3.257,7.671-7.274
		C141.234,65.3,137.801,62.043,133.563,62.043z M133.563,73.432c-2.272,0-4.115-1.842-4.115-4.115s1.843-4.115,4.115-4.115
		s4.114,1.843,4.114,4.115S135.836,73.432,133.563,73.432z"/>
	<path d="M121.27,168.676c-3.969,0-7.187,3.051-7.187,6.814c0,3.765,3.218,6.815,7.187,6.815c3.97,0,7.187-3.051,7.187-6.815
		C128.457,171.727,125.24,168.676,121.27,168.676z M121.27,179.346c-2.129,0-3.855-1.726-3.855-3.855
		c0-2.129,1.726-3.855,3.855-3.855s3.855,1.727,3.855,3.855C125.125,177.621,123.399,179.346,121.27,179.346z"/>
	<path d="M128.926,119.009c-4.745,0-8.593,3.051-8.593,6.814c0,3.765,3.848,6.815,8.593,6.815c4.748,0,8.595-3.051,8.595-6.815
		C137.521,122.06,133.674,119.009,128.926,119.009z M128.926,129.679c-2.545,0-4.609-1.726-4.609-3.855
		c0-2.129,2.064-3.855,4.609-3.855c2.546,0,4.61,1.727,4.61,3.855C133.536,127.954,131.472,129.679,128.926,129.679z"/>
</g>
<g id="mushroms">
	<path fill="#D3CFC7" d="M96.27,67.042c-1.207-5.255-7.19-8.049-13.528-6.682c-6.339,1.368-10.638,6.379-9.572,11.664l6.072-1.31
		l1.705,7.906l9.738-2.101l-1.705-7.905L96.27,67.042z"/>
	<path fill="#D3CFC7" d="M114.327,158.667c-0.064-4.287-4.735-7.75-10.494-7.75s-10.43,3.463-10.494,7.75h5.994v7h8v-7H114.327z"/>
	<path fill="#D3CFC7" d="M103.351,118.802c2.036,3.773,7.777,4.69,12.886,2.032s7.655-7.886,5.733-11.719l-5.318,2.767l-3.231-6.21
		l-7.097,3.692l3.231,6.21L103.351,118.802z"/>
	<path fill="#D3CFC7" d="M97.221,46.828c0.411-4.269-3.846-8.228-9.57-8.866s-10.75,2.285-11.289,6.539l5.958,0.665l-0.776,6.957
		l7.951,0.887l0.776-6.957L97.221,46.828z"/>
	<path fill="#D3CFC7" d="M136.327,47.667c-0.068-4-5.018-8.311-11.122-8.311s-11.054,4.311-11.122,8.311h6.25v9h8v-9H136.327z"/>
	<path fill="#D3CFC7" d="M151.689,87.668c-0.463-3.491-4.278-5.901-8.571-5.392c-4.291,0.51-7.438,3.747-7.069,7.25l4.467-0.531
		l0.679,5.709l5.961-0.708l-0.678-5.708L151.689,87.668z"/>
	<path fill="#D3CFC7" d="M78.786,106.641c1.16-4.128-2.331-8.778-7.852-10.418s-10.984,0.348-12.267,4.439l5.746,1.708l-1.994,6.71
		l7.668,2.279l1.994-6.71L78.786,106.641z"/>
</g>
<g id="broccoli">
	<g>
		
			<rect x="80.812" y="120.351" transform="matrix(0.9699 0.2435 -0.2435 0.9699 33.541 -16.6943)" fill="#A3E557" width="7" height="14"/>
		<path fill="#71993C" d="M98.411,123.553c0.808-3.219-0.651-6.403-3.298-7.48c0.624-3.331-1.127-6.527-4.069-7.265
			c-2.373-0.596-4.817,0.587-6.212,2.761c-1.911,0.043-3.725,1.147-4.854,2.906c-2.605,0.058-5.042,2.089-5.788,5.061
			c-0.875,3.486,0.906,7.029,3.978,7.801c2.374,0.596,4.818-0.669,6.213-2.669c0.01,0,0.02,0,0.029,0
			c-0.204,3,1.496,5.643,4.184,6.318c2.394,0.601,4.86-0.654,6.248-2.864C96.516,127.321,97.884,125.649,98.411,123.553z"/>
	</g>
	<g>
		
			<rect x="53.454" y="43.035" transform="matrix(-0.4528 0.8916 -0.8916 -0.4528 127.3552 21.9127)" fill="#A3E557" width="6.999" height="14.001"/>
		<path fill="#71993C" d="M57.524,64.626c2.958,1.503,6.388,0.788,8.026-1.553c3.108,1.348,6.614,0.351,7.988-2.353
			c1.108-2.181,0.498-4.827-1.312-6.67c0.383-1.873-0.291-3.887-1.754-5.378c0.522-2.553-0.917-5.38-3.649-6.768
			c-3.205-1.627-7.055-0.679-8.489,2.145c-1.108,2.182-0.418,4.846,1.222,6.651c-0.002,0.01-0.004,0.019-0.006,0.028
			c-2.88-0.865-5.834,0.205-7.09,2.676c-1.117,2.2-0.442,4.884,1.404,6.728C54.271,61.942,55.597,63.647,57.524,64.626z"/>
	</g>
	<g>
		
			<rect x="106.903" y="35.41" transform="matrix(0.9766 -0.215 0.215 0.9766 -6.2087 24.5178)" fill="#A3E557" width="5.389" height="10.778"/>
		<path fill="#71993C" d="M118.006,33.337c-0.549-2.495-2.649-4.188-4.843-4.02c-0.714-2.509-3.019-4.109-5.299-3.607
			c-1.84,0.405-3.118,2.059-3.332,4.037c-1.301,0.686-2.172,2.07-2.345,3.669c-1.775,0.936-2.756,3.172-2.249,5.476
			c0.595,2.703,3.008,4.469,5.389,3.944c1.84-0.405,3.118-2.06,3.332-4.036c0.007-0.003,0.013-0.007,0.02-0.011
			c0.893,2.142,3.001,3.437,5.085,2.979c1.855-0.409,3.139-2.088,3.337-4.088C117.979,36.553,118.363,34.962,118.006,33.337z"/>
	</g>
	<g>
		<rect x="158.333" y="52.667" fill="#A3E557" width="7" height="14"/>
		<path fill="#71993C" d="M174.583,52.55c0-3.319-2.191-6.052-5.02-6.453c-0.206-3.382-2.683-6.056-5.715-6.056
			c-2.447,0-4.53,1.742-5.354,4.19c-1.843,0.507-3.334,2.02-4,4c-2.514,0.691-4.382,3.254-4.382,6.318
			c0,3.594,2.567,6.508,5.735,6.508c2.446,0,4.529-1.742,5.354-4.19c0.009-0.002,0.018-0.005,0.027-0.008
			c0.534,2.966,2.847,5.198,5.619,5.198c2.467,0,4.564-1.772,5.373-4.254C173.651,56.621,174.583,54.711,174.583,52.55z"/>
	</g>
	<g>
		<rect x="100.333" y="81.667" fill="#A3E557" width="5" height="11"/>
		<path fill="#71993C" d="M111.583,81.25c0-2.709-1.568-4.94-3.591-5.267c-0.147-2.761-1.919-4.942-4.089-4.942
			c-1.75,0-3.241,1.421-3.83,3.42c-1.318,0.414-2.385,1.648-2.862,3.265c-1.798,0.564-3.135,2.656-3.135,5.157
			c0,2.934,1.837,5.312,4.103,5.312c1.75,0,3.241-1.422,3.831-3.42c0.006-0.002,0.013-0.004,0.02-0.007
			c0.382,2.421,2.037,4.243,4.02,4.243c1.766,0,3.267-1.447,3.845-3.472C110.916,84.573,111.583,83.014,111.583,81.25z"/>
	</g>
	<g>
		
			<rect x="127.892" y="140.594" transform="matrix(-0.9112 -0.4119 0.4119 -0.9112 189.9792 333.1358)" fill="#A3E557" width="6" height="11"/>
		<path fill="#71993C" d="M119.765,146.857c-1.076,2.381-0.409,5.044,1.467,6.237c-0.951,2.493-0.061,5.205,2.089,6.176
			c1.735,0.785,3.778,0.203,5.156-1.289c1.471,0.228,3.019-0.381,4.134-1.587c2.007,0.31,4.163-0.93,5.156-3.128
			c1.165-2.578,0.276-5.381-1.971-6.396c-1.734-0.785-3.748-0.438-5.169,1.401c-0.007-0.001-0.015-0.002-0.022-0.003
			c0.663-2.94-0.32-4.754-2.285-5.642c-1.75-0.791-3.806-0.247-5.184,1.273C121.739,144.291,120.466,145.305,119.765,146.857z"/>
	</g>
	<g>
		
			<rect x="135.751" y="102.923" transform="matrix(0.9651 -0.2619 0.2619 0.9651 -23.8926 40.0642)" fill="#A3E557" width="5.16" height="13.456"/>
		<path fill="#71993C" d="M145.61,100.588c-0.834-3.078-3.082-5.19-5.194-5.016c-0.998-3.098-3.433-5.1-5.59-4.515
			c-1.741,0.473-2.784,2.49-2.754,4.92c-1.184,0.826-1.864,2.517-1.84,4.482c-1.614,1.126-2.298,3.864-1.527,6.706
			c0.904,3.334,3.465,5.542,5.718,4.931c1.74-0.472,2.784-2.49,2.755-4.92c0.006-0.003,0.011-0.008,0.018-0.013
			c1.126,2.649,3.333,4.273,5.306,3.737c1.755-0.476,2.802-2.525,2.752-4.983C145.973,104.545,146.155,102.594,145.61,100.588z"/>
	</g>
</g>
</svg>
